<svg id="Layer_1" data-name="Layer 1" xmlns="http://www.w3.org/2000/svg" viewBox="0 0 960.2 228.97"><title>dar-logo</title><text transform="translate(292.33 174.77)" style="font-size:200px;fill:#111;font-family:Roboto-Regular, Roboto">KIDUM.</text><text x="-1.17" y="-49.88"/><path d="M248.89,109.86,146.75,59.92c-8.8-4.4-23.77-4.4-32.58,0L9.68,109.86c-7.33,3.52-8.51,8.51-8.51,11.16s1.18,7.34,8.51,11.16l8.52,4.11v47A14.37,14.37,0,0,0,9.1,196.5a14.58,14.58,0,0,0,8.8,13.22l-13.21,42H41.86l-13.09-42a14.28,14.28,0,0,0-.29-26.43v-42l15.42,7.64V210.2a4.71,4.71,0,0,0,.88,2.64c1.46,1.76,28.73,39,84.44,39s83-37.54,84.16-39a4.78,4.78,0,0,0,.88-2.64v-61l34.63-17c7.34-3.53,8.51-8.52,8.51-11.16C257.11,118.37,256.23,113.38,248.89,109.86Zm-44.18,98.81c-4.69,5.87-29.9,34-75.63,34s-71-28.14-75.64-34v-55.4l60.69,29a39.54,39.54,0,0,0,16.12,3.23c6.16,0,12-1.18,16.42-3.52l58-28.44ZM245.1,124.1l-35.25,17.33a3.38,3.38,0,0,0-3.23,1.77L142.89,174c-6.17,3.23-18.21,3.23-24.68,0l-78.42-37.6L130,125.87a4.58,4.58,0,0,0-.88-9.11L24.52,129.1l-10.58-5c-2.64-1.17-3.23-2.64-3.23-2.64,0-.29.59-1.47,3.23-2.64L118.51,68.59a30.29,30.29,0,0,1,12-2.35c4.7,0,9.4.88,12.34,2.35L245.1,118.52c2.65,1.18,3.23,2.35,3.23,2.94A8,8,0,0,1,245.1,124.1Z" transform="translate(-1.17 -49.88)" style="fill:#ff9138"/></svg>